<mxfile host="app.diagrams.net" modified="2023-07-27T14:28:08.406Z" agent="Mozilla/5.0 (Windows NT 10.0; Win64; x64) AppleWebKit/537.36 (KHTML, like Gecko) Chrome/114.0.0.0 Safari/537.36" etag="k765UcdAyF0Be2OokSud" version="21.6.5" type="github">
  <diagram name="Page-1" id="Q3S8qEkMGTNUwsjY90w3">
    <mxGraphModel dx="880" dy="452" grid="1" gridSize="10" guides="1" tooltips="1" connect="1" arrows="1" fold="1" page="1" pageScale="1" pageWidth="850" pageHeight="1100" math="0" shadow="0">
      <root>
        <mxCell id="0" />
        <mxCell id="1" parent="0" />
        <mxCell id="43HkbdOx59kkVguI6PFV-15" style="edgeStyle=orthogonalEdgeStyle;rounded=0;orthogonalLoop=1;jettySize=auto;html=1;exitX=0.25;exitY=1;exitDx=0;exitDy=0;entryX=0.25;entryY=0;entryDx=0;entryDy=0;" edge="1" parent="1" source="43HkbdOx59kkVguI6PFV-14" target="AKcUftun1-LZaaW81JXQ-19">
          <mxGeometry relative="1" as="geometry" />
        </mxCell>
        <mxCell id="43HkbdOx59kkVguI6PFV-14" value="" style="rounded=0;whiteSpace=wrap;html=1;fillColor=#dae8fc;strokeColor=#000000;" vertex="1" parent="1">
          <mxGeometry x="395.37" y="339" width="140" height="67" as="geometry" />
        </mxCell>
        <mxCell id="AKcUftun1-LZaaW81JXQ-3" value="" style="rounded=0;whiteSpace=wrap;html=1;fontSize=16;" parent="1" vertex="1">
          <mxGeometry x="621" y="339" width="150" height="100" as="geometry" />
        </mxCell>
        <mxCell id="43HkbdOx59kkVguI6PFV-20" style="edgeStyle=orthogonalEdgeStyle;rounded=0;orthogonalLoop=1;jettySize=auto;html=1;exitX=1;exitY=0.5;exitDx=0;exitDy=0;entryX=0;entryY=0.75;entryDx=0;entryDy=0;" edge="1" parent="1">
          <mxGeometry relative="1" as="geometry">
            <mxPoint x="306.3800000000001" y="373" as="sourcePoint" />
            <mxPoint x="395.3699999999999" y="373.25" as="targetPoint" />
          </mxGeometry>
        </mxCell>
        <mxCell id="AKcUftun1-LZaaW81JXQ-4" value="" style="rounded=0;whiteSpace=wrap;html=1;fontSize=16;" parent="1" vertex="1">
          <mxGeometry x="156.38" y="339" width="150" height="100" as="geometry" />
        </mxCell>
        <mxCell id="AKcUftun1-LZaaW81JXQ-5" value="" style="verticalLabelPosition=bottom;verticalAlign=top;html=1;shape=mxgraph.basic.layered_rect;dx=10;outlineConnect=0;whiteSpace=wrap;fontSize=16;fillColor=#fff2cc;strokeColor=#d6b656;gradientColor=#ffd966;" parent="1" vertex="1">
          <mxGeometry x="181" y="368" width="100" height="60" as="geometry" />
        </mxCell>
        <mxCell id="AKcUftun1-LZaaW81JXQ-6" value="Offline Records" style="text;html=1;strokeColor=none;fillColor=none;align=center;verticalAlign=middle;whiteSpace=wrap;rounded=0;fontSize=12;" parent="1" vertex="1">
          <mxGeometry x="196" y="378" width="60" height="30" as="geometry" />
        </mxCell>
        <mxCell id="AKcUftun1-LZaaW81JXQ-7" value="&lt;b style=&quot;font-size: 14px;&quot;&gt;ODK Central&lt;/b&gt;" style="text;html=1;strokeColor=none;fillColor=none;align=center;verticalAlign=middle;whiteSpace=wrap;rounded=0;fontSize=14;" parent="1" vertex="1">
          <mxGeometry x="187.88" y="339" width="87" height="30" as="geometry" />
        </mxCell>
        <mxCell id="AKcUftun1-LZaaW81JXQ-9" value="&lt;b style=&quot;font-size: 14px;&quot;&gt;ODK MTS &lt;br&gt;Connector&lt;/b&gt;" style="text;html=1;strokeColor=none;fillColor=none;align=center;verticalAlign=middle;whiteSpace=wrap;rounded=0;fontSize=14;" parent="1" vertex="1">
          <mxGeometry x="420" y="360" width="90" height="30" as="geometry" />
        </mxCell>
        <mxCell id="AKcUftun1-LZaaW81JXQ-10" value="&lt;b style=&quot;font-size: 14px;&quot;&gt;OpenG2P Registry&lt;/b&gt;" style="text;html=1;strokeColor=none;fillColor=none;align=center;verticalAlign=middle;whiteSpace=wrap;rounded=0;fontSize=14;" parent="1" vertex="1">
          <mxGeometry x="631" y="340" width="130" height="30" as="geometry" />
        </mxCell>
        <mxCell id="AKcUftun1-LZaaW81JXQ-12" style="edgeStyle=none;curved=1;rounded=0;orthogonalLoop=1;jettySize=auto;html=1;exitX=1;exitY=0.5;exitDx=0;exitDy=0;fontSize=12;startSize=8;endSize=8;" parent="1" edge="1">
          <mxGeometry relative="1" as="geometry">
            <mxPoint x="535.37" y="373" as="sourcePoint" />
            <mxPoint x="620" y="373" as="targetPoint" />
          </mxGeometry>
        </mxCell>
        <mxCell id="43HkbdOx59kkVguI6PFV-16" style="edgeStyle=orthogonalEdgeStyle;rounded=0;orthogonalLoop=1;jettySize=auto;html=1;exitX=0.75;exitY=0;exitDx=0;exitDy=0;entryX=0.75;entryY=1;entryDx=0;entryDy=0;" edge="1" parent="1" source="AKcUftun1-LZaaW81JXQ-19" target="43HkbdOx59kkVguI6PFV-14">
          <mxGeometry relative="1" as="geometry" />
        </mxCell>
        <mxCell id="AKcUftun1-LZaaW81JXQ-19" value="MOSIP Token Seeder" style="rounded=0;whiteSpace=wrap;html=1;fontSize=14;fillColor=#e1d5e7;fontStyle=1;strokeColor=#000000;" parent="1" vertex="1">
          <mxGeometry x="395.37" y="450" width="140" height="41" as="geometry" />
        </mxCell>
        <mxCell id="AKcUftun1-LZaaW81JXQ-25" value="" style="verticalLabelPosition=bottom;verticalAlign=top;html=1;shape=mxgraph.basic.layered_rect;dx=10;outlineConnect=0;whiteSpace=wrap;fontSize=16;fillColor=#d5e8d4;gradientColor=#97d077;strokeColor=#82b366;" parent="1" vertex="1">
          <mxGeometry x="651" y="369" width="100" height="60" as="geometry" />
        </mxCell>
        <mxCell id="AKcUftun1-LZaaW81JXQ-26" value="Authenticated Records + Auth Tokens" style="text;html=1;strokeColor=none;fillColor=none;align=center;verticalAlign=middle;whiteSpace=wrap;rounded=0;fontSize=12;" parent="1" vertex="1">
          <mxGeometry x="673" y="376.5" width="50" height="35" as="geometry" />
        </mxCell>
        <mxCell id="43HkbdOx59kkVguI6PFV-17" value="ODK Form" style="text;html=1;strokeColor=none;fillColor=none;align=center;verticalAlign=middle;whiteSpace=wrap;rounded=0;" vertex="1" parent="1">
          <mxGeometry x="320" y="349" width="60" height="30" as="geometry" />
        </mxCell>
        <mxCell id="43HkbdOx59kkVguI6PFV-18" value="JSON Object" style="text;html=1;strokeColor=none;fillColor=none;align=center;verticalAlign=middle;whiteSpace=wrap;rounded=0;" vertex="1" parent="1">
          <mxGeometry x="541.05" y="348" width="72.63" height="30" as="geometry" />
        </mxCell>
        <mxCell id="43HkbdOx59kkVguI6PFV-23" value="API Call" style="text;html=1;strokeColor=none;fillColor=none;align=center;verticalAlign=middle;whiteSpace=wrap;rounded=0;" vertex="1" parent="1">
          <mxGeometry x="371" y="411.5" width="60" height="30" as="geometry" />
        </mxCell>
        <mxCell id="43HkbdOx59kkVguI6PFV-24" value="Authentication Token" style="text;html=1;strokeColor=none;fillColor=none;align=center;verticalAlign=middle;whiteSpace=wrap;rounded=0;" vertex="1" parent="1">
          <mxGeometry x="501" y="418" width="85" height="30" as="geometry" />
        </mxCell>
      </root>
    </mxGraphModel>
  </diagram>
</mxfile>
